<svg xmlns="http://www.w3.org/2000/svg" viewBox="0 0 1200 680" role="img" aria-labelledby="title desc">
  <title id="title">Traction négative en trois positions</title>
  <desc id="desc">Trois positions successives montrent une personne partir menton au-dessus de la barre avec l'aide d'un support, descendre sous contrôle avec les coudes encore fléchis, puis terminer bras tendus sans balancement.</desc>
  <g fill="none" stroke="#62584d" stroke-width="8" stroke-linecap="round" stroke-linejoin="round">
    <path d="M90 105H360M465 105H735M840 105H1110" stroke-width="14"/>

    <g>
      <ellipse cx="225" cy="68" rx="28" ry="33"/>
      <path d="M175 105L164 165L205 132M275 105L286 165L245 132"/>
      <path d="M205 132Q225 142 245 132"/>
      <path d="M213 137Q201 174 205 278Q225 299 245 278Q249 174 237 137"/>
      <path d="M205 278L195 408M245 278L255 408"/>
      <path d="M195 408L185 445M255 408L265 445"/>
      <rect x="135" y="445" width="180" height="76" rx="10" opacity=".38"/>
    </g>

    <g>
      <ellipse cx="600" cy="218" rx="30" ry="37"/>
      <path d="M550 105L555 172L582 191M650 105L645 172L618 191"/>
      <path d="M582 191Q600 201 618 191"/>
      <path d="M588 255Q576 283 580 378Q600 399 620 378Q624 283 612 255"/>
      <path d="M580 378L570 500M620 378L630 500"/>
      <path d="M570 500L560 540M630 500L640 540"/>
    </g>

    <g>
      <path d="M925 105L955 245M1025 105L995 245"/>
      <path d="M955 245Q975 255 995 245"/>
      <ellipse cx="975" cy="292" rx="30" ry="37"/>
      <path d="M963 329Q951 357 955 424Q975 445 995 424Q999 357 987 329"/>
      <path d="M955 424L945 545M995 424L1005 545"/>
      <path d="M945 545L935 585M1005 545L1015 585"/>
    </g>
  </g>

  <g fill="none" stroke="#62584d" stroke-width="5" stroke-linecap="round" opacity=".42">
    <path d="M395 245v125"/>
    <path d="M382 355l13 18 13-18"/>
    <path d="M770 300v125"/>
    <path d="M757 410l13 18 13-18"/>
  </g>
</svg>
